<?xml version="1.0" standalone="no"?>
<!DOCTYPE svg PUBLIC "-//W3C//DTD SVG 20010904//EN"
 "http://www.w3.org/TR/2001/REC-SVG-20010904/DTD/svg10.dtd">
<svg version="1.0" xmlns="http://www.w3.org/2000/svg"
 width="512.000000pt" height="512.000000pt" viewBox="0 0 512.000000 512.000000"
 preserveAspectRatio="xMidYMid meet">

<g transform="translate(0.000000,512.000000) scale(0.100000,-0.100000)"
fill="#000000" stroke="none">
<path d="M2393 5106 c-434 -83 -752 -433 -789 -868 l-7 -78 -418 0 -419 0 -4
-22 c-3 -13 -93 -934 -201 -2048 -107 -1114 -198 -2040 -201 -2057 l-5 -33
2211 0 2211 0 -5 33 c-3 17 -94 943 -201 2057 -108 1114 -198 2035 -201 2048
l-4 22 -419 0 -418 0 -7 78 c-20 232 -121 447 -288 608 -127 124 -278 207
-450 250 -89 21 -296 27 -385 10z m347 -222 c36 -8 108 -36 160 -61 80 -40
109 -61 186 -137 76 -77 97 -106 137 -186 47 -97 71 -179 80 -282 l6 -58 -749
0 -749 0 6 58 c9 103 33 186 80 282 39 78 62 110 133 181 191 193 436 263 710
203z m-1140 -1254 l0 -320 -75 0 -75 0 0 -110 0 -110 310 0 310 0 0 110 0 110
-130 0 -130 0 2 318 3 317 745 0 745 0 3 -317 2 -318 -130 0 -130 0 0 -110 0
-110 310 0 310 0 0 110 0 110 -75 0 -75 0 0 320 0 320 324 0 324 0 6 -47 c9
-70 356 -3651 356 -3674 0 -19 -28 -19 -1970 -19 -1942 0 -1970 0 -1970 19 0
23 347 3604 356 3674 l6 47 324 0 324 0 0 -320z"/>
<path d="M1990 2544 c-224 -48 -410 -224 -476 -450 -22 -77 -22 -235 0 -324
62 -241 199 -454 452 -700 165 -161 359 -310 556 -429 l38 -23 96 58 c425 254
764 601 896 917 66 160 89 357 58 487 -66 278 -323 480 -610 480 -134 0 -287
-52 -392 -133 l-48 -37 -47 37 c-146 111 -345 156 -523 117z m290 -227 c107
-39 158 -79 237 -185 l54 -72 58 77 c31 43 75 93 96 112 126 110 340 126 486
36 168 -104 233 -278 183 -492 -20 -87 -88 -231 -156 -330 -65 -96 -260 -294
-388 -395 -106 -84 -273 -198 -289 -198 -31 0 -308 218 -444 349 -407 393
-518 777 -291 1005 114 113 297 151 454 93z"/>
</g>
</svg>
